<?xml version="1.0" encoding="utf-8"?>
<!-- Generator: Adobe Illustrator 23.0.3, SVG Export Plug-In . SVG Version: 6.00 Build 0)  -->
<svg version="1.1" id="Image__x28_4_x29__xA0_Image_1_"
	 xmlns="http://www.w3.org/2000/svg" xmlns:xlink="http://www.w3.org/1999/xlink" x="0px" y="0px" viewBox="0 0 150 150"
	 style="enable-background:new 0 0 150 150;" xml:space="preserve">
<style type="text/css">
	.st0{fill:#FFFFFF;}
</style>
<path d="M122.22,37.23"/>
<path class="st0" d="M77.11,84.72c8.66,13.88,25.57,25.35,34.45,15.01c0.57-0.66,3.44,0.35,3.26,8.37
	c-0.13,5.82-0.98,10.34-3.49,14.47c-4.6,7.57-15.46,15.85-19.75,7.33c-4.51-8.93-25.25-18.15-36.71-21.23
	c-9.06-2.44-11.45-2.14-23.05-4.89c-4.13-0.98-9.06-3.21-11.36-6.23c-6.32-8.31-8.95-16.93-14.08-28.35
	c-1.49-3.31-4.16-17.06-2.8-21.51c0.96-3.16,1.36-4.37,1.63-4.35c0.84,0.07,1.43,4.38,3.39,7.95c0.74,1.35-0.2,0.65,4.05,4.57
	c3.4,3.14,8.08,3.98,9.34,4.24C33.3,62.48,39,60.53,50.81,64.61c8.19,2.83,8.87,2.76,13.24,5.43c2.34,1.43,6.33,4.46,10.11,10.33"/>
<path class="st0" d="M71.07,133.5c-3.31,1.92-10.97,5.79-19,5.47c-2.51-0.1-15.23-3.3-20.2-5.32c-3.39-1.38-9.93-2.03-13.96-1.16
	c-2.83,0.62-9.37,3.6-12.07,4.66c-0.01,0,1.16-3.63,1.17-3.66c1.38-3.45,2.31-6.43,7.19-10.98c3.44-3.21,5.82-4.66,7.23-5.43
	c5.84-3.19,8.13-3.13,11.61-5.01c1.83-0.99,1.84-2.57,4.16-3.81c4.86-2.58,27.31,5.7,32.44,8.05c10.7,4.9,26.78,15.48,15.5,13.03
	c-1.74-0.38-4.03-0.16-7.08,0.4C75.64,130.1,72.16,132.88,71.07,133.5z"/>
<path class="st0" d="M101.88,62.16c-2.86-4.23-2.86-4.23-4.95-8.02C93.53,48,94.87,39.89,97.8,34.29
	c5.53-10.56,12.33-12.53,22.05-5.6c4.11,2.93,7.57,6.77,11.64,9.76c2.83,2.07,10.41,5.06,14.51,5.91
	c-4.27,0.62-13.73,1.03-17.94,0.77c-2.89-0.18-5.54-1.46-8.63-1.95c-3.4-0.54-7.02,0.12-3.55,0.63c5.23,0.77,13.24,3.72,0.04,3.57
	c-5.08,0.07-5.19,4.12-3.83,7.72c4.07,10.81,10.88,19.86,16.53,29.71c4.71,8.22,7.9,17.59,9.73,26.83
	c2.65,13.36,0.84,25.62-14.98,31.11c-1.79,0.62-17.2,5.54-23.15-0.61c9.32,1.73,19.75-10.25,20.25-10.73
	c8.12-7.71,8.01-19.69,1.43-33.9c-5.58-12.04-8.29-16.08-15.49-27.64L101.88,62.16z"/>
</svg>
